<svg version="1.2" xmlns="http://www.w3.org/2000/svg" viewBox="-151 -205 260 56" width="260" height="56">
	<title>4951215</title>
	<defs>
		<linearGradient id="g1" x2="1" gradientUnits="userSpaceOnUse" gradientTransform="matrix(-17.191,-29.776,16.866,-9.738,-124.483,-155.718)">
			<stop offset="0" stop-color="#04b34f"/>
			<stop offset="1" stop-color="#0bff72"/>
		</linearGradient>
		<linearGradient id="g2" x2="1" gradientUnits="userSpaceOnUse" gradientTransform="matrix(9.585,0,0,5.201,-126.069,-185.144)">
			<stop offset="0" stop-color="#04b34f"/>
			<stop offset="1" stop-color="#0bff72"/>
		</linearGradient>
		<linearGradient id="g3" x2="1" gradientUnits="userSpaceOnUse" gradientTransform="matrix(-9.893,0,0,-5.301,-122.793,-165.717)">
			<stop offset="0" stop-color="#04b34f"/>
			<stop offset="1" stop-color="#0bff72"/>
		</linearGradient>
		<linearGradient id="g4" x2="1" gradientUnits="userSpaceOnUse" gradientTransform="matrix(17.064,0,0,-12.523,-130.581,-156.513)">
			<stop offset="0" stop-color="#0bff72"/>
			<stop offset=".871" stop-color="#000000"/>
			<stop offset="1" stop-color="#007f3d"/>
		</linearGradient>
		<linearGradient id="g5" x2="1" gradientUnits="userSpaceOnUse" gradientTransform="matrix(18.417,0,0,15.152,-137.124,-194.435)">
			<stop offset="0" stop-color="#04b34f"/>
			<stop offset="0" stop-color="#000000"/>
			<stop offset=".383" stop-color="#26a69a"/>
			<stop offset="1" stop-color="#0bff72"/>
		</linearGradient>
		<linearGradient id="g6" x2="1" gradientUnits="userSpaceOnUse" gradientTransform="matrix(-5.411,-9.372,5.439,-3.14,-130.387,-172.533)">
			<stop offset="0" stop-color="#0bff72"/>
			<stop offset="1" stop-color="#007f3d"/>
		</linearGradient>
		<linearGradient id="g7" x2="1" gradientUnits="userSpaceOnUse" gradientTransform="matrix(-10.563,-10.563,7.725,-7.725,-116.847,-161.716)">
			<stop offset="0" stop-color="#04b34f"/>
			<stop offset="1" stop-color="#0bff72"/>
		</linearGradient>
	</defs>
	<style>
		.s0 { fill: url(#g1) } 
		.s1 { fill: url(#g2) } 
		.s2 { fill: url(#g3) } 
		.s3 { fill: url(#g4) } 
		.s4 { fill: url(#g5) } 
		.s5 { fill: url(#g6) } 
		.s6 { fill: url(#g7) } 
		.s7 { fill: #26a69a } 
		.s8 { fill: none } 
	</style>
	<g id="BACKGROUND">
	</g>
	<g id="OBJECTS">
		<g id="&lt;Group&gt;">
			<g id="&lt;Group&gt;">
			</g>
		</g>
		<g id="&lt;Group&gt;">
			<g id="&lt;Group&gt;">
				<g id="&lt;Group&gt;">
					<path id="&lt;Path&gt;" class="s0" d="m-108.5-184.7q-0.3-0.3-0.7-0.4-0.3-0.1-0.7-0.2-0.4 0-0.8 0.1-0.4 0-0.8 0.3l-30.5 17.7 1.2 1q0.7 0.5 1.4 0.6 0.7 0 1.5-0.4l30.6-17.8z"/>
				</g>
				<g id="&lt;Group&gt;">
					<path id="&lt;Path&gt;" class="s1" d="m-117.7-184.6q-0.3-0.2-0.7-0.3-0.3-0.2-0.7-0.2-0.4-0.1-0.8 0-0.4 0.1-0.8 0.3l-5.4 3.3 1.3 1q0.6 0.5 1.4 0.6 0.7 0 1.4-0.4l5.5-3.3z"/>
				</g>
				<g id="&lt;Group&gt;">
					<path id="&lt;Path&gt;" class="s2" d="m-131.5-166.3q0.3 0.2 0.7 0.4 0.4 0.1 0.8 0.2 0.4 0 0.8-0.1 0.4-0.1 0.8-0.3l5.6-3.3-1.2-1q-0.7-0.6-1.4-0.6-0.7-0.1-1.5 0.4l-5.8 3.3z"/>
				</g>
				<g id="&lt;Group&gt;">
					<path id="&lt;Path&gt;" class="s3" d="m-118.1-169l4.6 2.6q-0.1 0.1-0.3 0.2l-16.8 9.7v-3.9c0-0.9 0.5-1.7 1.3-2.2z"/>
					<g id="&lt;Group&gt;">
						<path id="&lt;Path&gt;" class="s4" d="m-118.7-194.4v3.8c0 0.9-0.5 1.8-1.3 2.2l-15.8 9.1c-0.8-0.6-1.3-1.6-1.3-2.6 0-1.2 0.6-2.3 1.6-2.8z"/>
						<path id="&lt;Path&gt;" class="s5" d="m-125-178.3l-4.6 2.6-1-0.5v-0.1l-4.9-2.8q-0.1-0.1-0.3-0.2l4.6-2.6z"/>
						<path id="&lt;Path&gt;" class="s6" d="m-112.2-169c0 1-0.5 2-1.3 2.6l-10.9-6.3 4.6-2.6 1.1 0.6 4.9 2.8c1 0.6 1.6 1.7 1.6 2.9z"/>
					</g>
				</g>
			</g>
			<g id="&lt;Group&gt;">
				<path id="Satendra coder" class="s7" aria-label="Satendra coder"  d="m-90.7-192.7l-1 1.9q-0.1 0.3-0.4 0.5-0.2 0.1-0.5 0.1-0.3 0-0.6-0.2-0.4-0.3-0.9-0.6-0.5-0.2-1.2-0.5-0.7-0.2-1.6-0.2-0.9 0-1.5 0.2-0.6 0.2-1.1 0.6-0.4 0.3-0.6 0.8-0.2 0.5-0.2 1.1 0 0.8 0.4 1.3 0.4 0.5 1.1 0.9 0.8 0.3 1.7 0.6 0.9 0.3 1.8 0.6 1 0.4 1.9 0.8 0.9 0.4 1.6 1.1 0.7 0.6 1.1 1.6 0.4 0.9 0.4 2.3 0 1.5-0.5 2.7-0.5 1.3-1.5 2.3-0.9 0.9-2.3 1.5-1.4 0.5-3.2 0.5-1.1 0-2.1-0.2-1-0.2-1.9-0.5-0.9-0.4-1.7-0.9-0.9-0.6-1.5-1.2l1.2-2q0.2-0.2 0.4-0.3 0.2-0.2 0.5-0.2 0.4 0 0.8 0.4 0.5 0.3 1.1 0.6 0.6 0.4 1.4 0.7 0.8 0.3 1.9 0.3 1.7 0 2.7-0.8 0.9-0.8 0.9-2.3 0-0.9-0.4-1.4-0.4-0.6-1.1-1-0.7-0.3-1.6-0.6-1-0.2-1.9-0.5-0.9-0.3-1.8-0.8-0.9-0.4-1.6-1.1-0.7-0.6-1.2-1.6-0.4-1.1-0.4-2.6 0-1.2 0.5-2.3 0.4-1.1 1.4-2 0.9-0.9 2.2-1.4 1.3-0.5 3-0.5 1.9 0 3.6 0.6 1.6 0.6 2.7 1.7zm11.3 15.7v-2.6q-1.6 0.1-2.7 0.3-1.1 0.2-1.7 0.5-0.7 0.3-1 0.7-0.3 0.5-0.3 1 0 0.9 0.6 1.4 0.6 0.4 1.5 0.4 1.2 0 2-0.4 0.8-0.4 1.6-1.3zm-7.8-8.1l-0.7-1.2q2.7-2.4 6.4-2.4 1.4 0 2.5 0.4 1 0.5 1.8 1.3 0.7 0.7 1.1 1.8 0.4 1.1 0.4 2.4v9.8h-1.7q-0.5 0-0.8-0.2-0.3-0.1-0.5-0.6l-0.3-1.1q-0.6 0.5-1.2 0.9-0.5 0.4-1.1 0.7-0.6 0.3-1.3 0.4-0.7 0.1-1.5 0.1-1 0-1.8-0.2-0.9-0.3-1.5-0.8-0.6-0.5-0.9-1.3-0.3-0.8-0.3-1.8 0-0.6 0.2-1.2 0.2-0.6 0.6-1.1 0.5-0.5 1.2-1 0.7-0.5 1.7-0.8 1-0.4 2.4-0.6 1.4-0.2 3.1-0.3v-0.9q0-1.5-0.6-2.2-0.7-0.8-1.9-0.8-0.9 0-1.5 0.2-0.6 0.2-1.1 0.5-0.4 0.3-0.8 0.5-0.4 0.2-0.8 0.2-0.4 0-0.7-0.2-0.3-0.2-0.4-0.5zm19.9 12.3q-2 0-3.1-1.1-1.1-1.1-1.1-3.1v-8.7h-1.6q-0.3 0-0.5-0.2-0.2-0.2-0.2-0.5v-1.5l2.5-0.4 0.8-4.2q0.1-0.3 0.3-0.5 0.2-0.2 0.5-0.2h1.9v4.9h4.2v2.6h-4.2v8.4q0 0.7 0.4 1.1 0.4 0.4 1 0.4 0.3 0 0.5 0 0.3-0.1 0.4-0.2 0.2-0.1 0.4-0.2 0.1-0.1 0.2-0.1 0.2 0 0.3 0.1 0.1 0.1 0.2 0.3l1.1 1.8q-0.8 0.6-1.8 1-1.1 0.3-2.2 0.3zm8.9-9.7h7q0-0.7-0.2-1.4-0.2-0.6-0.6-1.1-0.4-0.5-1.1-0.7-0.6-0.3-1.4-0.3-1.6 0-2.6 0.9-0.9 0.9-1.1 2.6zm9.5 2.2h-9.6q0.1 1.2 0.4 2.1 0.3 0.9 0.9 1.4 0.5 0.6 1.3 0.9 0.7 0.3 1.6 0.3 0.9 0 1.6-0.3 0.6-0.2 1.1-0.4 0.5-0.3 0.9-0.5 0.4-0.2 0.7-0.2 0.5 0 0.7 0.3l1.1 1.4q-0.7 0.7-1.4 1.2-0.8 0.5-1.6 0.8-0.9 0.3-1.7 0.4-0.9 0.1-1.7 0.1-1.6 0-3-0.5-1.4-0.5-2.4-1.6-1-1-1.6-2.6-0.6-1.5-0.6-3.6 0-1.5 0.5-2.9 0.5-1.4 1.5-2.4 0.9-1.1 2.3-1.7 1.4-0.6 3.1-0.6 1.5 0 2.7 0.5 1.2 0.4 2.1 1.3 0.9 0.9 1.4 2.2 0.5 1.3 0.5 3 0 0.9-0.2 1.2-0.1 0.2-0.6 0.2zm6.8-7.5l0.3 1.2q0.5-0.4 1-0.8 0.5-0.4 1.1-0.7 0.6-0.3 1.2-0.4 0.7-0.2 1.5-0.2 1.2 0 2.2 0.4 1 0.5 1.6 1.3 0.7 0.7 1 1.8 0.4 1.1 0.4 2.4v9.8h-3.7v-9.8q0-1.4-0.7-2.2-0.6-0.8-2-0.8-0.9 0-1.8 0.4-0.8 0.5-1.6 1.2v11.2h-3.7v-15.4h2.3q0.7 0 0.9 0.6zm23.5 10.2v-6.9q-0.6-0.8-1.4-1.1-0.7-0.3-1.6-0.3-0.8 0-1.5 0.3-0.7 0.3-1.2 1-0.5 0.6-0.7 1.6-0.3 1-0.3 2.3 0 1.4 0.2 2.3 0.3 1 0.7 1.6 0.4 0.5 1 0.8 0.6 0.3 1.3 0.3 1.1 0 2-0.5 0.8-0.5 1.5-1.4zm0-17.8h3.7v22.4h-2.3q-0.7 0-0.9-0.7l-0.3-1.5q-0.9 1.1-2.2 1.8-1.2 0.6-2.8 0.6-1.2 0-2.3-0.5-1.1-0.5-1.8-1.5-0.8-1-1.2-2.5-0.4-1.5-0.4-3.4 0-1.7 0.5-3.2 0.4-1.4 1.3-2.5 0.9-1.1 2.1-1.7 1.2-0.6 2.7-0.6 1.3 0 2.2 0.4 1 0.4 1.7 1.1zm10.7 7.8l0.2 1.8q0.7-1.4 1.7-2.2 1-0.8 2.4-0.8 1 0 1.7 0.5l-0.3 2.8q0 0.2-0.2 0.4-0.1 0.1-0.4 0.1-0.2 0-0.6-0.1-0.5-0.1-0.9-0.1-0.6 0-1.1 0.2-0.5 0.2-0.9 0.5-0.4 0.3-0.7 0.8-0.2 0.5-0.5 1.1v9.5h-3.7v-15.4h2.2q0.5 0 0.8 0.2 0.2 0.2 0.3 0.7zm15.9 10.6v-2.6q-1.6 0-2.7 0.2-1.1 0.2-1.8 0.5-0.7 0.4-0.9 0.8-0.3 0.4-0.3 0.9 0 1 0.5 1.4 0.6 0.4 1.6 0.4 1.1 0 1.9-0.4 0.9-0.4 1.7-1.2zm-7.9-8.2l-0.6-1.1q2.6-2.5 6.4-2.5 1.3 0 2.4 0.5 1.1 0.4 1.8 1.2 0.7 0.8 1.1 1.9 0.4 1.1 0.4 2.4v9.7h-1.7q-0.5 0-0.8-0.1-0.3-0.2-0.4-0.7l-0.4-1.1q-0.6 0.6-1.1 1-0.6 0.4-1.2 0.6-0.6 0.3-1.3 0.5-0.7 0.1-1.5 0.1-1 0-1.8-0.3-0.8-0.2-1.4-0.8-0.6-0.5-0.9-1.3-0.4-0.8-0.4-1.8 0-0.6 0.2-1.2 0.2-0.5 0.6-1.1 0.5-0.5 1.2-1 0.7-0.4 1.7-0.8 1.1-0.3 2.4-0.5 1.4-0.3 3.2-0.3v-0.9q0-1.6-0.7-2.3-0.6-0.8-1.9-0.8-0.9 0-1.5 0.3-0.6 0.2-1 0.4-0.5 0.3-0.9 0.5-0.3 0.2-0.8 0.2-0.4 0-0.6-0.2-0.3-0.2-0.5-0.5zm34.4-1.4l-1 1.4q-0.2 0.2-0.3 0.3-0.2 0.1-0.5 0.1-0.3 0-0.6-0.1-0.2-0.2-0.6-0.4-0.4-0.3-0.9-0.4-0.5-0.2-1.3-0.2-1 0-1.7 0.3-0.7 0.4-1.2 1.1-0.5 0.6-0.8 1.6-0.2 0.9-0.2 2.1 0 1.2 0.3 2.2 0.2 1 0.7 1.6 0.5 0.7 1.2 1 0.7 0.3 1.6 0.3 0.9 0 1.5-0.2 0.5-0.2 0.9-0.5 0.4-0.2 0.6-0.4 0.3-0.3 0.7-0.3 0.4 0 0.6 0.4l1.1 1.3q-0.6 0.8-1.3 1.3-0.7 0.4-1.5 0.7-0.8 0.3-1.6 0.5-0.8 0.1-1.7 0.1-1.4 0-2.6-0.6-1.3-0.5-2.3-1.5-0.9-1-1.5-2.5-0.5-1.5-0.5-3.4 0-1.7 0.5-3.2 0.5-1.4 1.4-2.5 1-1 2.4-1.6 1.4-0.6 3.2-0.6 1.7 0 3 0.5 1.3 0.6 2.4 1.6zm9-2.1q1.7 0 3.1 0.5 1.4 0.6 2.4 1.6 1 1 1.6 2.5 0.5 1.5 0.5 3.3 0 1.8-0.5 3.3-0.6 1.5-1.6 2.5-1 1.1-2.4 1.6-1.4 0.6-3.1 0.6-1.7 0-3.1-0.6-1.5-0.5-2.5-1.6-1-1-1.5-2.5-0.6-1.5-0.6-3.3 0-1.8 0.6-3.3 0.5-1.5 1.5-2.5 1-1 2.5-1.6 1.4-0.5 3.1-0.5zm0 13q1.9 0 2.8-1.3 1-1.3 1-3.8 0-2.5-1-3.8-0.9-1.3-2.8-1.3-2 0-2.9 1.3-0.9 1.3-0.9 3.8 0 2.5 0.9 3.8 0.9 1.3 2.9 1.3zm20.2-1.9v-7q-0.7-0.7-1.4-1-0.8-0.4-1.6-0.4-0.9 0-1.5 0.4-0.7 0.3-1.2 0.9-0.5 0.7-0.7 1.6-0.3 1-0.3 2.4 0 1.3 0.2 2.3 0.2 0.9 0.6 1.5 0.5 0.6 1 0.9 0.6 0.2 1.3 0.2 1.2 0 2-0.5 0.8-0.4 1.6-1.3zm0-17.8h3.7v22.3h-2.3q-0.7 0-0.9-0.6l-0.3-1.5q-1 1-2.2 1.7-1.2 0.7-2.8 0.7-1.3 0-2.3-0.6-1.1-0.5-1.9-1.5-0.7-1-1.1-2.5-0.4-1.4-0.4-3.3 0-1.7 0.4-3.2 0.5-1.5 1.4-2.6 0.8-1.1 2.1-1.7 1.2-0.6 2.7-0.6 1.3 0 2.2 0.4 0.9 0.4 1.7 1.1zm10.3 12.9h7q0-0.7-0.2-1.4-0.2-0.6-0.6-1.1-0.4-0.5-1-0.7-0.7-0.3-1.5-0.3-1.6 0-2.5 0.9-1 0.9-1.2 2.6zm9.5 2.2h-9.6q0.1 1.2 0.4 2.1 0.4 0.9 0.9 1.4 0.5 0.6 1.3 0.9 0.7 0.2 1.6 0.2 0.9 0 1.6-0.2 0.7-0.2 1.1-0.4 0.5-0.3 0.9-0.5 0.4-0.2 0.7-0.2 0.5 0 0.7 0.3l1.1 1.4q-0.6 0.7-1.4 1.2-0.8 0.5-1.6 0.8-0.8 0.3-1.7 0.4-0.9 0.1-1.7 0.1-1.6 0-3-0.5-1.4-0.6-2.4-1.6-1-1-1.6-2.6-0.6-1.5-0.6-3.6 0-1.5 0.5-2.9 0.5-1.4 1.5-2.5 0.9-1 2.3-1.6 1.4-0.6 3.1-0.6 1.5 0 2.7 0.5 1.3 0.4 2.1 1.3 0.9 0.9 1.4 2.2 0.5 1.3 0.5 3 0 0.8-0.1 1.1-0.2 0.3-0.7 0.3zm6.9-7.2l0.2 1.7q0.8-1.4 1.8-2.1 0.9-0.8 2.3-0.8 1.1 0 1.7 0.4l-0.2 2.8q-0.1 0.3-0.2 0.4-0.2 0.1-0.4 0.1-0.2 0-0.7-0.1-0.4 0-0.9 0-0.6 0-1.1 0.1-0.4 0.2-0.8 0.6-0.4 0.3-0.7 0.8-0.3 0.5-0.6 1.1v9.5h-3.7v-15.5h2.2q0.6 0 0.8 0.3 0.2 0.1 0.3 0.7z"/>
				<path id="Shape 3" fill-rule="evenodd" class="s8" d="m105-205v61h-261v-61z"/>
				<path id="iT Hub Technologies" class="s7" aria-label="iT Hub Technologies"  d="m-93.8-164.1h2v8.1h-2zm2.2-2.4q0 0.3-0.1 0.5-0.1 0.2-0.2 0.4-0.2 0.2-0.4 0.3-0.3 0.1-0.5 0.1-0.3 0-0.5-0.1-0.2-0.1-0.4-0.3-0.2-0.2-0.3-0.4-0.1-0.2-0.1-0.5 0-0.2 0.1-0.4 0.1-0.3 0.3-0.4 0.2-0.2 0.4-0.3 0.2-0.1 0.5-0.1 0.2 0 0.5 0.1 0.2 0.1 0.4 0.3 0.1 0.1 0.2 0.4 0.1 0.2 0.1 0.4zm9.9-0.9v1.7h-3.4v9.7h-2.1v-9.7h-3.4v-1.7zm12.3 0h2.1v11.4h-2.1v-5h-5.4v5h-2.1v-11.4h2.1v4.9h5.4zm9.2 3.3h1.9v8.1h-1.2q-0.3 0-0.4-0.4l-0.2-0.6q-0.5 0.5-1.1 0.8-0.6 0.3-1.4 0.3-0.6 0-1.2-0.2-0.5-0.2-0.8-0.7-0.3-0.4-0.5-0.9-0.2-0.6-0.2-1.3v-5.1h1.9v5.1q0 0.8 0.4 1.2 0.3 0.4 1 0.4 0.5 0 1-0.2 0.4-0.3 0.8-0.7zm5.8 2.4v3.6q0.3 0.4 0.7 0.6 0.4 0.2 0.8 0.2 0.5 0 0.8-0.2 0.4-0.2 0.7-0.5 0.2-0.4 0.3-0.9 0.2-0.5 0.2-1.3 0-1.3-0.5-1.9-0.4-0.6-1.2-0.6-0.6 0-1 0.3-0.4 0.2-0.8 0.7zm0-6v4.6q0.5-0.5 1.1-0.8 0.6-0.3 1.3-0.3 0.7 0 1.3 0.3 0.6 0.3 1 0.8 0.4 0.5 0.6 1.2 0.2 0.8 0.2 1.7 0 1-0.3 1.8-0.2 0.8-0.7 1.3-0.4 0.6-1 0.9-0.7 0.3-1.5 0.3-0.3 0-0.6 0-0.4-0.1-0.6-0.2-0.3-0.2-0.5-0.4-0.2-0.2-0.4-0.4l-0.1 0.5q0 0.2-0.2 0.3-0.1 0.1-0.3 0.1h-1.2v-11.7zm18.6 0.3v1.8h-3.5v9.6h-2.1v-9.6h-3.4v-1.8zm0.8 6.4h3.7q0-0.3-0.1-0.7-0.1-0.3-0.4-0.6-0.2-0.2-0.5-0.3-0.3-0.2-0.8-0.2-0.8 0-1.3 0.5-0.5 0.5-0.6 1.3zm5 1.2h-5q0 0.6 0.2 1.1 0.1 0.4 0.4 0.7 0.3 0.3 0.7 0.5 0.4 0.1 0.9 0.1 0.4 0 0.8-0.1 0.3-0.1 0.6-0.2 0.2-0.2 0.4-0.3 0.2-0.1 0.4-0.1 0.2 0 0.4 0.2l0.5 0.7q-0.3 0.4-0.7 0.6-0.4 0.3-0.8 0.5-0.5 0.1-0.9 0.2-0.5 0-0.9 0-0.8 0-1.6-0.2-0.7-0.3-1.2-0.9-0.6-0.5-0.9-1.3-0.3-0.8-0.3-1.9 0-0.8 0.3-1.5 0.3-0.8 0.8-1.3 0.5-0.6 1.2-0.9 0.7-0.3 1.6-0.3 0.8 0 1.4 0.3 0.7 0.2 1.1 0.7 0.5 0.4 0.7 1.1 0.3 0.7 0.3 1.6 0 0.4-0.1 0.6-0.1 0.1-0.3 0.1zm8.2-3.3l-0.5 0.7q-0.1 0.2-0.2 0.2-0.1 0.1-0.3 0.1-0.1 0-0.2-0.1-0.2-0.1-0.4-0.2-0.2-0.1-0.5-0.2-0.2-0.1-0.6-0.1-0.5 0-0.9 0.2-0.4 0.2-0.7 0.5-0.2 0.4-0.3 0.9-0.2 0.4-0.2 1.1 0 0.6 0.2 1.1 0.1 0.5 0.4 0.9 0.2 0.3 0.6 0.5 0.4 0.2 0.8 0.2 0.5 0 0.8-0.2 0.3-0.1 0.5-0.2 0.2-0.2 0.3-0.3 0.2-0.1 0.3-0.1 0.3 0 0.4 0.2l0.5 0.7q-0.3 0.4-0.7 0.6-0.3 0.3-0.7 0.5-0.4 0.1-0.9 0.2-0.4 0-0.8 0-0.8 0-1.4-0.2-0.7-0.3-1.2-0.9-0.5-0.5-0.8-1.3-0.3-0.7-0.3-1.7 0-0.9 0.3-1.7 0.2-0.7 0.7-1.3 0.5-0.6 1.3-0.9 0.7-0.3 1.7-0.3 0.9 0 1.5 0.3 0.7 0.3 1.3 0.8zm3.2-4.6v4.5q0.5-0.4 1-0.7 0.6-0.3 1.4-0.3 0.6 0 1.1 0.2 0.6 0.3 0.9 0.7 0.3 0.4 0.5 0.9 0.2 0.6 0.2 1.3v5.1h-1.9v-5.1q0-0.8-0.4-1.2-0.3-0.4-1-0.4-0.5 0-1 0.3-0.4 0.2-0.8 0.6v5.8h-1.9v-11.7zm8.6 4l0.1 0.6q0.3-0.2 0.5-0.4 0.3-0.2 0.6-0.4 0.3-0.1 0.7-0.2 0.3-0.1 0.7-0.1 0.7 0 1.2 0.2 0.5 0.3 0.8 0.7 0.4 0.4 0.6 0.9 0.1 0.6 0.1 1.3v5.1h-1.9v-5.1q0-0.8-0.4-1.2-0.3-0.4-1-0.4-0.5 0-0.9 0.3-0.5 0.2-0.9 0.6v5.8h-1.9v-8.1h1.2q0.4 0 0.5 0.4zm10.7-0.5q0.9 0 1.7 0.3 0.7 0.3 1.2 0.8 0.6 0.6 0.8 1.3 0.3 0.8 0.3 1.8 0 0.9-0.3 1.7-0.2 0.8-0.8 1.3-0.5 0.6-1.2 0.8-0.8 0.3-1.7 0.3-0.9 0-1.6-0.3-0.7-0.2-1.3-0.8-0.5-0.5-0.8-1.3-0.3-0.8-0.3-1.7 0-1 0.3-1.8 0.3-0.7 0.8-1.3 0.6-0.5 1.3-0.8 0.7-0.3 1.6-0.3zm0 6.8q1.1 0 1.5-0.6 0.5-0.7 0.5-2 0-1.3-0.5-2-0.4-0.7-1.5-0.7-1 0-1.5 0.7-0.5 0.7-0.5 2 0 1.3 0.5 2 0.5 0.6 1.5 0.6zm5.5-10.3h2v11.7h-2zm7.5 3.5q0.9 0 1.6 0.3 0.8 0.3 1.3 0.8 0.5 0.6 0.8 1.3 0.3 0.8 0.3 1.8 0 0.9-0.3 1.7-0.3 0.8-0.8 1.3-0.5 0.6-1.3 0.8-0.7 0.3-1.6 0.3-0.9 0-1.6-0.3-0.8-0.2-1.3-0.8-0.5-0.5-0.8-1.3-0.3-0.8-0.3-1.7 0-1 0.3-1.8 0.3-0.7 0.8-1.3 0.5-0.5 1.3-0.8 0.7-0.3 1.6-0.3zm0 6.8q1 0 1.5-0.6 0.5-0.7 0.5-2 0-1.3-0.5-2-0.5-0.7-1.5-0.7-1 0-1.5 0.7-0.5 0.7-0.5 2 0 1.3 0.5 2 0.5 0.6 1.5 0.6zm8.4-2.8q0.3 0 0.6-0.1 0.3-0.1 0.4-0.3 0.2-0.2 0.3-0.4 0.1-0.3 0.1-0.5 0-0.6-0.4-1-0.3-0.3-1-0.3-0.7 0-1.1 0.3-0.4 0.4-0.4 1 0 0.2 0.1 0.5 0.1 0.2 0.3 0.4 0.2 0.2 0.4 0.3 0.3 0.1 0.7 0.1zm2.2 4.6q0-0.3-0.2-0.4-0.1-0.2-0.4-0.2-0.2-0.1-0.5-0.2-0.4 0-0.7 0-0.4 0-0.8-0.1-0.4 0-0.7 0-0.4 0.2-0.6 0.4-0.2 0.2-0.2 0.6 0 0.2 0.1 0.4 0.1 0.2 0.4 0.3 0.2 0.1 0.6 0.2 0.4 0.1 0.9 0.1 0.5 0 0.9-0.1 0.4-0.1 0.7-0.2 0.2-0.2 0.3-0.4 0.2-0.2 0.2-0.4zm-0.4-8.2h2.3v0.7q0 0.4-0.4 0.5l-0.7 0.1q0.1 0.4 0.1 0.9 0 0.6-0.2 1.1-0.3 0.5-0.7 0.8-0.4 0.4-1 0.5-0.6 0.2-1.2 0.2-0.3 0-0.5 0-0.2 0-0.4-0.1-0.4 0.3-0.4 0.5 0 0.3 0.2 0.4 0.2 0.1 0.6 0.2 0.4 0 0.9 0 0.4 0 0.9 0.1 0.5 0 1 0.1 0.5 0.1 0.8 0.3 0.4 0.2 0.6 0.6 0.3 0.4 0.3 0.9 0 0.6-0.3 1.1-0.3 0.5-0.8 0.9-0.5 0.4-1.2 0.6-0.7 0.3-1.7 0.3-0.9 0-1.5-0.2-0.7-0.2-1.2-0.5-0.4-0.3-0.6-0.7-0.3-0.4-0.3-0.8 0-0.5 0.4-0.9 0.3-0.4 0.9-0.6-0.3-0.2-0.5-0.5-0.2-0.3-0.2-0.7 0-0.2 0.1-0.4 0.1-0.2 0.2-0.4 0.1-0.1 0.3-0.3 0.2-0.2 0.5-0.3-0.6-0.3-1-0.9-0.3-0.6-0.3-1.3 0-0.6 0.2-1.1 0.2-0.5 0.7-0.8 0.4-0.3 1-0.5 0.6-0.2 1.3-0.2 0.5 0 0.9 0.1 0.5 0.1 0.9 0.3zm3.6-0.3h1.9v8.1h-1.9zm2.2-2.3q0 0.2-0.1 0.4-0.1 0.3-0.3 0.4-0.1 0.2-0.4 0.3-0.2 0.1-0.4 0.1-0.3 0-0.5-0.1-0.2-0.1-0.4-0.3-0.2-0.1-0.3-0.4-0.1-0.2-0.1-0.4 0-0.3 0.1-0.5 0.1-0.3 0.3-0.4 0.2-0.2 0.4-0.3 0.2-0.1 0.5-0.1 0.2 0 0.4 0.1 0.3 0.1 0.4 0.3 0.2 0.1 0.3 0.4 0.1 0.2 0.1 0.5zm3.3 5.4h3.6q0-0.4-0.1-0.7-0.1-0.3-0.3-0.6-0.2-0.2-0.5-0.4-0.4-0.1-0.8-0.1-0.8 0-1.3 0.5-0.5 0.4-0.6 1.3zm4.9 1.2h-5q0.1 0.6 0.2 1.1 0.2 0.4 0.5 0.7 0.3 0.3 0.7 0.5 0.4 0.1 0.8 0.1 0.5 0 0.8-0.1 0.4-0.1 0.6-0.2 0.3-0.2 0.5-0.3 0.2-0.1 0.4-0.1 0.2 0 0.3 0.2l0.6 0.7q-0.3 0.4-0.7 0.6-0.4 0.3-0.9 0.4-0.4 0.2-0.9 0.2-0.4 0.1-0.8 0.1-0.9 0-1.6-0.3-0.7-0.2-1.3-0.8-0.5-0.5-0.8-1.3-0.3-0.9-0.3-1.9 0-0.8 0.3-1.6 0.2-0.7 0.7-1.2 0.5-0.6 1.2-0.9 0.8-0.3 1.7-0.3 0.7 0 1.4 0.2 0.6 0.3 1.1 0.7 0.5 0.5 0.7 1.2 0.3 0.7 0.3 1.5 0 0.5-0.1 0.6-0.1 0.2-0.4 0.2zm7.3-3.4l-0.4 0.7q-0.1 0.1-0.2 0.2-0.1 0-0.2 0-0.2 0-0.3-0.1-0.2 0-0.4-0.1-0.2-0.1-0.5-0.2-0.3-0.1-0.6-0.1-0.6 0-0.9 0.2-0.4 0.3-0.4 0.7 0 0.2 0.2 0.4 0.2 0.2 0.5 0.3 0.2 0.2 0.6 0.3 0.4 0.1 0.7 0.2 0.4 0.1 0.7 0.3 0.4 0.2 0.7 0.4 0.3 0.3 0.4 0.6 0.2 0.3 0.2 0.8 0 0.6-0.2 1.1-0.2 0.5-0.6 0.9-0.4 0.3-1.1 0.5-0.5 0.2-1.3 0.2-0.5 0-0.9-0.1-0.3 0-0.7-0.2-0.4-0.1-0.7-0.3-0.3-0.2-0.5-0.4l0.4-0.7q0.1-0.1 0.2-0.2 0.1-0.1 0.3-0.1 0.2 0 0.4 0.1 0.1 0.1 0.3 0.2 0.2 0.2 0.5 0.3 0.3 0.1 0.8 0.1 0.3 0 0.5-0.1 0.3-0.1 0.5-0.2 0.1-0.2 0.2-0.4 0.1-0.1 0.1-0.3 0-0.3-0.2-0.5-0.2-0.2-0.4-0.3-0.3-0.1-0.7-0.2-0.3-0.1-0.7-0.3-0.4-0.1-0.8-0.3-0.3-0.1-0.6-0.4-0.3-0.3-0.4-0.6-0.2-0.4-0.2-0.9 0-0.5 0.2-1 0.2-0.4 0.6-0.8 0.4-0.3 0.9-0.5 0.6-0.2 1.3-0.2 0.9 0 1.6 0.3 0.6 0.2 1.1 0.7z"/>
			</g>
		</g>
		<g id="Shape 2">
			<g id="&lt;Group&gt;">
				<g id="&lt;Group&gt;">
				</g>
			</g>
			<g id="&lt;Group&gt;">
			</g>
		</g>
	</g>
</svg>